<?xml version="1.0" encoding="UTF-8"?>
<svg xmlns="http://www.w3.org/2000/svg" xmlns:xlink="http://www.w3.org/1999/xlink" width="24pt" height="24pt" viewBox="0 0 24 24" version="1.1">
<g id="surface1">
<path style=" stroke:none;fill-rule:nonzero;fill:rgb(0.392157%,0%,0.784314%);fill-opacity:1;" d="M 22.5 0 L 1.5 0 C 0.671875 0 0 0.671875 0 1.5 L 0 22.5 C 0 23.328125 0.671875 24 1.5 24 L 22.5 24 C 23.328125 24 24 23.328125 24 22.5 L 24 1.5 C 24 0.671875 23.328125 0 22.5 0 Z M 4.5 22.5 L 1.5 22.5 L 1.5 19.5 L 4.5 19.5 Z M 4.5 16.5 L 1.5 16.5 L 1.5 13.5 L 4.5 13.5 Z M 4.5 10.5 L 1.5 10.5 L 1.5 7.5 L 4.5 7.5 Z M 4.5 4.5 L 1.5 4.5 L 1.5 1.5 L 4.5 1.5 Z M 18 22.5 L 6 22.5 L 6 15 L 18 15 Z M 18 13.5 L 6 13.5 L 6 1.5 L 18 1.5 Z M 22.5 22.5 L 19.5 22.5 L 19.5 19.5 L 22.5 19.5 Z M 22.5 16.5 L 19.5 16.5 L 19.5 13.5 L 22.5 13.5 Z M 22.5 10.5 L 19.5 10.5 L 19.5 7.5 L 22.5 7.5 Z M 22.5 4.5 L 19.5 4.5 L 19.5 1.5 L 22.5 1.5 Z M 22.5 4.5 "/>
</g>
</svg>
